<svg width="36" height="36" viewBox="0 0 36 36" fill="none" xmlns="http://www.w3.org/2000/svg">
<path d="M35.4375 6.75V4.5C35.4375 4.1895 35.1855 3.9375 34.875 3.9375C33.2854 3.9375 31.8662 4.6755 30.9375 5.82525V3.834C31.5906 3.60113 32.0625 2.98238 32.0625 2.25C32.0625 1.31962 31.3054 0.5625 30.375 0.5625C29.4446 0.5625 28.6875 1.31962 28.6875 2.25C28.6875 2.98238 29.1594 3.60113 29.8125 3.834V5.82525C28.8838 4.6755 27.4646 3.9375 25.875 3.9375C25.5645 3.9375 25.3125 4.1895 25.3125 4.5V6.75C25.3125 9.351 27.2852 11.4981 29.8125 11.7793V15.2494C29.097 14.5181 28.1014 14.0625 27 14.0625C26.6895 14.0625 26.4375 14.3145 26.4375 14.625V15.75C26.4375 17.7294 27.9073 19.368 29.8125 19.6425V21.9375H18.5625V19.6425C20.4677 19.368 21.9375 17.7294 21.9375 15.75V14.625C21.9375 14.3145 21.6855 14.0625 21.375 14.0625C20.2736 14.0625 19.278 14.5181 18.5625 15.2494V11.7793C21.0898 11.4981 23.0625 9.351 23.0625 6.75V4.5C23.0625 4.1895 22.8105 3.9375 22.5 3.9375C20.9104 3.9375 19.4912 4.6755 18.5625 5.82525V3.834C19.2156 3.60113 19.6875 2.98238 19.6875 2.25C19.6875 1.31962 18.9304 0.5625 18 0.5625C17.0696 0.5625 16.3125 1.31962 16.3125 2.25C16.3125 2.98238 16.7844 3.60113 17.4375 3.834V5.82525C16.5088 4.6755 15.0896 3.9375 13.5 3.9375C13.1895 3.9375 12.9375 4.1895 12.9375 4.5V6.75C12.9375 9.351 14.9102 11.4981 17.4375 11.7793V15.2494C16.722 14.5181 15.7264 14.0625 14.625 14.0625C14.3145 14.0625 14.0625 14.3145 14.0625 14.625V15.75C14.0625 17.7294 15.5323 19.368 17.4375 19.6425V21.9375H6.1875V19.6425C8.09269 19.368 9.5625 17.7294 9.5625 15.75V14.625C9.5625 14.3145 9.3105 14.0625 9 14.0625C7.89862 14.0625 6.903 14.5181 6.1875 15.2494V11.7793C8.71481 11.4981 10.6875 9.351 10.6875 6.75V4.5C10.6875 4.1895 10.4355 3.9375 10.125 3.9375C8.53538 3.9375 7.11619 4.6755 6.1875 5.82525V3.834C6.84056 3.60113 7.3125 2.98238 7.3125 2.25C7.3125 1.31962 6.55538 0.5625 5.625 0.5625C4.69462 0.5625 3.9375 1.31962 3.9375 2.25C3.9375 2.98238 4.40944 3.60113 5.0625 3.834V5.82525C4.13381 4.6755 2.71462 3.9375 1.125 3.9375C0.8145 3.9375 0.5625 4.1895 0.5625 4.5V6.75C0.5625 9.351 2.53519 11.4981 5.0625 11.7793V15.2494C4.347 14.5181 3.35137 14.0625 2.25 14.0625C1.9395 14.0625 1.6875 14.3145 1.6875 14.625V15.75C1.6875 17.7294 3.15731 19.368 5.0625 19.6425V21.9375H1.125C0.8145 21.9375 0.5625 22.1895 0.5625 22.5V34.875C0.5625 35.1855 0.8145 35.4375 1.125 35.4375H34.875C35.1855 35.4375 35.4375 35.1855 35.4375 34.875V22.5C35.4375 22.1895 35.1855 21.9375 34.875 21.9375H30.9375V19.6425C32.8427 19.368 34.3125 17.7294 34.3125 15.75V14.625C34.3125 14.3145 34.0605 14.0625 33.75 14.0625C32.6486 14.0625 31.653 14.5181 30.9375 15.2494V11.7793C33.4648 11.4981 35.4375 9.351 35.4375 6.75ZM20.8125 15.2443V15.75C20.8125 17.1084 19.8444 18.2447 18.5625 18.5057V18C18.5625 16.6416 19.5306 15.5053 20.8125 15.2443ZM21.9375 5.10244V6.75C21.9375 8.73056 20.4683 10.3736 18.5625 10.6476V9C18.5625 7.01944 20.0317 5.37638 21.9375 5.10244ZM18 1.6875C18.3099 1.6875 18.5625 1.94006 18.5625 2.25C18.5625 2.55994 18.3099 2.8125 18 2.8125C17.6901 2.8125 17.4375 2.55994 17.4375 2.25C17.4375 1.94006 17.6901 1.6875 18 1.6875ZM14.0625 6.75V5.10244C15.9683 5.37638 17.4375 7.01944 17.4375 9V10.6476C15.5317 10.3736 14.0625 8.73056 14.0625 6.75ZM15.1875 15.75V15.2443C16.4694 15.5053 17.4375 16.6421 17.4375 18V18.5057C16.1556 18.2447 15.1875 17.1084 15.1875 15.75ZM8.4375 15.2443V15.75C8.4375 17.1084 7.46944 18.2447 6.1875 18.5057V18C6.1875 16.6416 7.15556 15.5053 8.4375 15.2443ZM9.5625 5.10244V6.75C9.5625 8.73056 8.09325 10.3736 6.1875 10.6476V9C6.1875 7.01944 7.65675 5.37638 9.5625 5.10244ZM5.625 1.6875C5.93494 1.6875 6.1875 1.94006 6.1875 2.25C6.1875 2.55994 5.93494 2.8125 5.625 2.8125C5.31506 2.8125 5.0625 2.55994 5.0625 2.25C5.0625 1.94006 5.31506 1.6875 5.625 1.6875ZM1.6875 6.75V5.10244C3.59325 5.37638 5.0625 7.01944 5.0625 9V10.6476C3.15675 10.3736 1.6875 8.73056 1.6875 6.75ZM2.8125 15.75V15.2443C4.09444 15.5053 5.0625 16.6416 5.0625 18V18.5057C3.78056 18.2447 2.8125 17.1084 2.8125 15.75ZM34.3125 25.3125V32.0625H32.0625V25.3125H34.3125ZM30.9375 32.0625H28.6875V25.3125H30.9375V32.0625ZM27.5625 32.0625H25.3125V25.3125H27.5625V32.0625ZM24.1875 32.0625H21.9375V25.3125H24.1875V32.0625ZM20.8125 32.0625H18.5625V25.3125H20.8125V32.0625ZM17.4375 32.0625H15.1875V25.3125H17.4375V32.0625ZM14.0625 32.0625H11.8125V25.3125H14.0625V32.0625ZM10.6875 32.0625H8.4375V25.3125H10.6875V32.0625ZM7.3125 32.0625H5.0625V25.3125H7.3125V32.0625ZM3.9375 32.0625H1.6875V25.3125H3.9375V32.0625ZM1.6875 34.3125V33.1875H34.3125V34.3125H1.6875ZM34.3125 24.1875H1.6875V23.0625H34.3125V24.1875ZM34.3125 5.10244V6.75C34.3125 8.73056 32.8433 10.3736 30.9375 10.6476V9C30.9375 7.01944 32.4067 5.37638 34.3125 5.10244ZM30.375 1.6875C30.6849 1.6875 30.9375 1.94006 30.9375 2.25C30.9375 2.55994 30.6849 2.8125 30.375 2.8125C30.0651 2.8125 29.8125 2.55994 29.8125 2.25C29.8125 1.94006 30.0651 1.6875 30.375 1.6875ZM26.4375 6.75V5.10244C28.3433 5.37638 29.8125 7.01944 29.8125 9V10.6476C27.9067 10.3736 26.4375 8.73056 26.4375 6.75ZM27.5625 15.75V15.2443C28.8444 15.5053 29.8125 16.6421 29.8125 18V18.5057C28.5306 18.2447 27.5625 17.1084 27.5625 15.75ZM33.1875 15.2443V15.75C33.1875 17.1084 32.2194 18.2447 30.9375 18.5057V18C30.9375 16.6416 31.9056 15.5053 33.1875 15.2443Z" fill="white"/>
</svg>
